# xmcd
#
# Track frame offsets:
#	150
#	18612
#	40439
#	57146
#	77556
#	95128
#	113432
#	130069
#	147996
#	167586
#	188400
#	213177
#	246882
#	272889
#
# Disc length: 4046 seconds
#
# Revision: 1
# Processed by: cddbd v1.5.1PL0 Copyright (c) Steve Scherf et al.
# Submitted via: CDex 1.50Beta5
#
DISCID=bc0fcc0e
DTITLE=都はるみ - 都はるみ全曲集
DYEAR=1994
DGENRE=World
TTITLE0=アンコ椿は恋の花
TTITLE1=涙の連絡船
TTITLE2=好きになった人
TTITLE3=おんなの海峡
TTITLE4=北の宿から
TTITLE5=大阪しぐれ
TTITLE6=浮草ぐらし
TTITLE7=ふたりの大阪
TTITLE8=浪花恋しぐれ
TTITLE9=夫婦坂
TTITLE10=千年の古都
TTITLE11=あなたの隣りを歩きたい
TTITLE12=古都逍遥
TTITLE13=花の乱
EXTD=
EXTT0=
EXTT1=
EXTT2=
EXTT3=
EXTT4=
EXTT5=
EXTT6=
EXTT7=
EXTT8=
EXTT9=
EXTT10=
EXTT11=
EXTT12=
EXTT13=
PLAYORDER=
